<svg width="80" height="24" viewBox="0 0 80 24" fill="none" xmlns="http://www.w3.org/2000/svg">
<path fill-rule="evenodd" clip-rule="evenodd" d="M0 6.92094V6.9809L13.4702 13.4123L26.988 6.95902V6.94282L13.4702 0.489799L0 6.92094ZM4.85623 6.95107L13.4705 2.83834L22.0856 6.95107L13.4702 11.0635L4.85623 6.95107ZM13.4702 15.9103L0 9.57516V11.9183L13.4702 18.2679L26.988 11.8967V9.55331L13.4702 15.9103ZM13.4702 20.6625L0 14.3268V16.6699L13.4702 23.0204L26.988 16.6483V14.3052L13.4702 20.6625Z" fill="#BDBAFA"/>
<mask id="mask0_0_105" style="mask-type:alpha" maskUnits="userSpaceOnUse" x="34" y="0" width="46" height="24">
<path fill-rule="evenodd" clip-rule="evenodd" d="M34.7056 0.0144577H79.988V23.6667H34.7056V0.0144577Z" fill="white"/>
</mask>
<g mask="url(#mask0_0_105)">
<path fill-rule="evenodd" clip-rule="evenodd" d="M76.8961 11.8296C76.8961 11.2909 76.8031 10.7886 76.617 10.3227C76.4309 9.85681 76.1769 9.44914 75.8548 9.0997C75.5327 8.75027 75.157 8.47727 74.7276 8.28072C74.2981 8.08418 73.8401 7.98589 73.3534 7.98589C72.8668 7.98589 72.4087 8.08418 71.9793 8.28072C71.5499 8.47727 71.1741 8.75027 70.8521 9.0997C70.53 9.44914 70.2759 9.85681 70.0898 10.3227C69.9037 10.7886 69.8107 11.2909 69.8107 11.8296C69.8107 12.3684 69.9037 12.8707 70.0898 13.3366C70.2759 13.8025 70.53 14.2101 70.8521 14.5596C71.1741 14.909 71.5499 15.182 71.9793 15.3786C72.4087 15.5751 72.8668 15.6734 73.3534 15.6734C73.8401 15.6734 74.2981 15.5751 74.7276 15.3786C75.157 15.182 75.5327 14.909 75.8548 14.5596C76.1769 14.2101 76.4309 13.8025 76.617 13.3366C76.8031 12.8707 76.8961 12.3684 76.8961 11.8296ZM79.988 11.8296C79.988 12.776 79.8162 13.6532 79.4727 14.4613C79.1291 15.2694 78.6568 15.9683 78.0556 16.5579C77.4544 17.1476 76.7494 17.6135 75.9407 17.9556C75.1319 18.2978 74.2695 18.4689 73.3534 18.4689C72.4373 18.4689 71.5785 18.2978 70.7769 17.9556C69.9753 17.6135 69.2739 17.1439 68.6727 16.547C68.0715 15.95 67.5992 15.2475 67.2557 14.4394C66.9121 13.6314 66.7403 12.7615 66.7403 11.8296C66.7403 10.9124 66.9157 10.0497 67.2664 9.24165C67.6171 8.43359 68.093 7.72744 68.6942 7.12322C69.2954 6.51898 69.9968 6.04579 70.7984 5.70365C71.5999 5.36151 72.4516 5.19043 73.3534 5.19043C74.2695 5.19043 75.1319 5.36151 75.9407 5.70365C76.7494 6.04579 77.4544 6.51171 78.0556 7.10138C78.6568 7.69105 79.1291 8.39355 79.4727 9.20889C79.8162 10.0242 79.988 10.8978 79.988 11.8296ZM65.6668 18.0758C65.4234 18.1922 65.1479 18.2868 64.8402 18.3597C64.5324 18.4324 64.2139 18.4689 63.8847 18.4689C63.4266 18.4689 62.9865 18.407 62.5642 18.2832C62.142 18.1594 61.7734 17.9593 61.4585 17.6826C61.1436 17.406 60.8931 17.0457 60.707 16.6016C60.5209 16.1575 60.4278 15.6224 60.4278 14.9964V0.0144424H63.5841V14.4504C63.5841 14.9745 63.6879 15.3349 63.8954 15.5314C64.103 15.728 64.3499 15.8263 64.6362 15.8263C64.994 15.8263 65.3376 15.7171 65.6668 15.4987V18.0758ZM59.0322 5.49618L53.4498 20.4999C53.0347 21.621 52.4907 22.4291 51.818 22.9241C51.1452 23.4191 50.3436 23.6667 49.4132 23.6667C49.2701 23.6667 49.1126 23.6557 48.9409 23.6339C48.7691 23.6121 48.6045 23.5793 48.447 23.5356L47.4164 20.6091C47.6597 20.7256 47.9103 20.8166 48.1679 20.8821C48.4256 20.9476 48.6689 20.9804 48.8979 20.9804C49.3846 20.9804 49.8283 20.8676 50.2291 20.6419C50.6299 20.4162 50.9377 19.9976 51.1524 19.3861L51.5818 18.1194L46.7938 5.49618H50.1647L53.0203 13.6205L55.7042 5.49616H59.0322V5.49618ZM46.0422 3.59615H37.9692V7.65829H45.9349V10.4101H37.9692V18.1413H34.7056V0.69148H46.0422V3.59615Z" fill="black"/>
</g>
</svg>
